<?xml version="1.0" standalone="no"?>
<!DOCTYPE svg PUBLIC "-//W3C//DTD SVG 20010904//EN"
 "http://www.w3.org/TR/2001/REC-SVG-20010904/DTD/svg10.dtd">
<svg version="1.0" xmlns="http://www.w3.org/2000/svg"
 width="1024.000000pt" height="1024.000000pt" viewBox="0 0 1024.000000 1024.000000"
 preserveAspectRatio="xMidYMid meet">

<g transform="translate(0.000000,1024.000000) scale(0.100000,-0.100000)"
fill="#000000" stroke="none">
<path d="M4941 8275 c-85 -24 -151 -64 -222 -136 -57 -57 -77 -87 -137 -210
-55 -112 -472 -1135 -620 -1519 -14 -36 -28 -69 -32 -73 -4 -5 -59 49 -122
120 -189 210 -265 276 -393 340 -106 54 -257 69 -363 38 -72 -22 -168 -90
-225 -161 -190 -232 -382 -955 -461 -1734 -47 -455 -44 -1201 4 -1381 21 -78
132 -115 207 -69 47 28 53 65 37 206 -21 180 -28 634 -15 894 32 604 132 1190
276 1610 86 249 140 342 227 386 44 22 61 26 108 21 121 -11 192 -65 430 -326
250 -275 398 -316 488 -136 11 22 126 308 256 635 306 769 401 1000 443 1082
152 292 345 247 773 -182 305 -304 519 -604 741 -1037 45 -87 89 -166 98 -177
37 -42 108 -59 154 -35 12 7 51 37 87 68 99 86 144 119 191 141 336 152 772
-606 1008 -1750 59 -288 117 -697 123 -870 l3 -85 -35 -17 c-39 -19 -183 -44
-330 -57 -52 -4 -96 -7 -97 -6 -2 1 -10 39 -18 86 -57 303 -255 914 -318 977
-49 48 -155 35 -194 -24 -29 -45 -22 -97 36 -254 30 -80 76 -215 103 -300 54
-172 134 -487 126 -495 -7 -7 -255 -21 -813 -45 -1043 -45 -2523 -127 -2987
-166 -43 -4 -78 -4 -78 -1 0 20 44 189 71 273 65 204 180 465 311 706 74 136
80 152 75 191 -12 92 -119 138 -197 85 -92 -63 -373 -646 -459 -950 -40 -144
-69 -283 -77 -365 -5 -61 -3 -72 18 -103 31 -46 77 -76 129 -84 38 -6 250 5
650 34 74 6 142 10 150 10 12 0 14 -56 12 -392 l-3 -392 -88 -28 c-48 -15
-104 -38 -122 -50 -103 -70 -106 -193 -7 -239 84 -38 264 -14 385 51 103 56
96 12 93 577 l-3 493 32 0 c17 0 209 11 428 25 218 14 525 31 682 40 157 8
340 17 408 21 l122 6 0 -538 0 -537 43 -41 c46 -44 121 -75 242 -101 142 -30
237 -9 269 59 20 42 20 67 2 109 -26 64 -118 115 -248 140 l-58 11 0 451 0
452 103 7 c195 12 850 40 882 37 6 -1 -8 -11 -30 -24 -137 -77 -64 -257 105
-257 123 0 230 121 230 261 l0 37 78 7 c284 24 475 65 559 120 77 51 87 77 79
205 -72 1150 -422 2280 -845 2723 -84 88 -205 173 -296 207 -92 36 -236 34
-330 -2 -38 -16 -103 -53 -144 -83 -40 -31 -75 -55 -76 -53 -1 2 -26 48 -55
103 -235 443 -449 737 -756 1036 -214 207 -393 336 -539 387 -89 31 -208 38
-284 17z"/>
<path d="M4745 5306 c-56 -25 -95 -85 -95 -144 1 -45 36 -110 72 -132 44 -27
122 -27 166 0 91 56 97 200 9 262 -37 26 -111 33 -152 14z"/>
<path d="M5845 5306 c-83 -37 -118 -137 -76 -216 57 -108 219 -108 273 0 66
131 -65 275 -197 216z"/>
<path d="M5362 4430 c-39 -24 -56 -62 -48 -109 8 -52 45 -83 104 -89 44 -4 53
-1 82 25 25 22 33 39 37 76 5 43 3 49 -30 82 -42 42 -92 47 -145 15z"/>
</g>
</svg>
